<svg xmlns="http://www.w3.org/2000/svg" viewBox="0 0 1300 818" font-family="'Segoe UI','Helvetica Neue',Arial,sans-serif">
  <title>Zynara Health · Care Approval IQ — Technical Architecture</title>
  <defs>
    <linearGradient id="seal" x1="0" y1="0" x2="1" y2="1"><stop offset="0" stop-color="#0FA3A0"/><stop offset="1" stop-color="#1FBE6B"/></linearGradient>
    <marker id="ab" viewBox="0 0 8 8" refX="6.4" refY="4" markerWidth="5.5" markerHeight="5.5" orient="auto-start-reverse"><path d="M0 0 L8 4 L0 8 z" fill="#2563EB"/></marker>
    <marker id="av" viewBox="0 0 8 8" refX="6.4" refY="4" markerWidth="5.5" markerHeight="5.5" orient="auto-start-reverse"><path d="M0 0 L8 4 L0 8 z" fill="#7C3AED"/></marker>
    <marker id="at" viewBox="0 0 8 8" refX="6.4" refY="4" markerWidth="5.5" markerHeight="5.5" orient="auto-start-reverse"><path d="M0 0 L8 4 L0 8 z" fill="#0891B2"/></marker>
    <marker id="am" viewBox="0 0 8 8" refX="6.4" refY="4" markerWidth="5.5" markerHeight="5.5" orient="auto-start-reverse"><path d="M0 0 L8 4 L0 8 z" fill="#047857"/></marker>
    <marker id="ao" viewBox="0 0 8 8" refX="6.4" refY="4" markerWidth="5.5" markerHeight="5.5" orient="auto-start-reverse"><path d="M0 0 L8 4 L0 8 z" fill="#B45309"/></marker>
    <style>
      text{ fill:#0B3B45; }
      .sub{ fill:#41575E; }
      .num{ fill:#FFFFFF; font-weight:800; }
      .sect{ font-size:12px; font-weight:700; letter-spacing:.07em; }
      .cn{ font-size:10.5px; font-weight:700; }
      .sm{ font-size:8px; fill:#41575E; }
      .lbl{ font-style:italic; font-size:7.4px; fill:#5B6B72; }
      .ico{ fill:none; stroke-width:1.7; stroke-linecap:round; stroke-linejoin:round; }
      .gl{ fill:none; stroke:#FFFFFF; stroke-width:1.6; stroke-linecap:round; stroke-linejoin:round; }
      .card{ fill:#FFFFFF; }
    </style>
  </defs>

  <rect width="1300" height="818" fill="#FFFFFF"/>
  <rect width="1300" height="6" fill="url(#seal)"/>

  <!-- HEADER -->
  <g transform="translate(40,18)">
    <circle cx="26" cy="26" r="26" fill="url(#seal)"/>
    <circle cx="26" cy="26" r="21" fill="none" stroke="#FFFFFF" stroke-opacity=".35" stroke-width="2.4" stroke-dasharray="1 5"/>
    <path class="gl" stroke-width="4.5" opacity=".45" d="M13 19 H40"/><path class="gl" stroke-width="4.5" opacity=".62" d="M13 26 H35"/><path class="gl" stroke-width="4.5" opacity=".82" d="M13 33 H30"/><path class="gl" stroke-width="5.4" d="M16 32 L24 41 L40 18"/>
  </g>
  <text x="110" y="40" font-size="30" font-weight="800" letter-spacing="-.01em">zynara</text>
  <text x="112" y="61" class="sub" font-size="9" font-weight="600" letter-spacing=".34em">H E A L T H</text>
  <text x="274" y="34" font-size="15" font-weight="600">Care Approval IQ</text>
  <text x="274" y="52" font-size="13" font-weight="600" font-style="italic" fill="#0E8F84">Proof beats paperwork.</text>
  <text x="1260" y="29" text-anchor="end" class="sub" font-size="10.5" font-weight="700" letter-spacing=".16em">TECHNICAL ARCHITECTURE</text>
  <text x="1260" y="45" text-anchor="end" class="sub" font-size="10">Microsoft Agent-a-thon 2026 · Architect Track</text>
  <text x="1260" y="60" text-anchor="end" class="sub" font-size="10">Deepak Kumar · Original Work</text>
  <line x1="40" y1="74" x2="1260" y2="74" stroke="#0FA3A0" stroke-opacity=".25"/>

  <!-- ===== 1 · INTAKE (amber) ===== -->
  <rect x="40" y="86" width="252" height="210" rx="13" fill="#FDF3E4" stroke="#B45309" stroke-opacity=".38" stroke-width="1.2"/>
  <path d="M53 86 Q40 86 40 99 L40 283 Q40 296 53 296" fill="none" stroke="#D97706" stroke-width="5" stroke-linecap="round"/>
  <circle cx="61" cy="110" r="13" fill="#D97706"/><text x="61" y="115" text-anchor="middle" class="num" font-size="13">1</text>
  <g transform="translate(84,103)" class="ico" stroke="#B45309"><path d="M0 10 v4 h15 v-4 M7.5 0 v8 M4 5 l3.5 3.5 3.5 -3.5"/></g>
  <text x="108" y="115" class="sect" fill="#B45309">INTAKE</text>
  <text x="46" y="134" class="sm">one entry point · no queue</text>
  <g transform="translate(52,146)">
    <rect width="228" height="62" rx="9" class="card" stroke="#B45309" stroke-opacity=".28"/>
    <path d="M9 0 Q0 0 0 9 L0 53 Q0 62 9 62" fill="none" stroke="#D97706" stroke-width="3.4" stroke-linecap="round"/>
    <rect x="12" y="12" width="20" height="20" rx="5" fill="#D97706"/><g transform="translate(18,17)" class="gl"><circle cx="4" cy="3.5" r="2.6"/><path d="M0 11c0-3 8-3 8 0"/></g>
    <text x="40" y="19" class="cn" font-size="10">Clinician request</text>
    <text x="40" y="32" class="sm" font-size="7.4">procedure · plan · region</text>
    <text x="40" y="43" class="sm" font-size="7.4">+ clinical note, denial letter (attached)</text>
    <text x="40" y="55" class="lbl" font-size="7">portal form or API client — TBD</text>
  </g>
  <g transform="translate(52,220)">
    <rect width="228" height="52" rx="9" class="card" stroke="#B45309" stroke-opacity=".28"/>
    <path d="M9 0 Q0 0 0 9 L0 43 Q0 52 9 52" fill="none" stroke="#D97706" stroke-width="3.4" stroke-linecap="round"/>
    <rect x="12" y="12" width="20" height="20" rx="5" fill="#D97706"/><g transform="translate(18,15)" class="gl"><path d="M5 0 L1 8 h3.5 L3.5 15 L9 6 H5.5 z"/></g>
    <text x="40" y="19" class="cn" font-size="10">Intake API</text>
    <text x="40" y="32" class="sm" font-size="7.4">Durable HTTP starter · POST /api/requests</text>
    <text x="40" y="43" class="sm" font-size="7.4">validates · 202 + status URL</text>
  </g>

  <!-- ===== 3 · AI FOUNDRY (violet) ===== -->
  <rect x="304" y="86" width="956" height="210" rx="13" fill="#EDE4FC" stroke="#7C3AED" stroke-opacity=".4" stroke-width="1.2"/>
  <path d="M317 86 Q304 86 304 99 L304 283 Q304 296 317 296" fill="none" stroke="#7C3AED" stroke-width="5" stroke-linecap="round"/>
  <circle cx="325" cy="110" r="13" fill="#7C3AED"/><text x="325" y="115" text-anchor="middle" class="num" font-size="13">3</text>
  <g transform="translate(347,103)" class="ico" stroke="#7C3AED"><path d="M7 0 l1.6 4.4 4.4 1.6 -4.4 1.6 -1.6 4.4 -1.6 -4.4 -4.4 -1.6 4.4 -1.6 z"/></g>
  <text x="371" y="114" class="sect" fill="#6D28D9">AI FOUNDRY — AGENT SERVICE</text>
  <text x="640" y="114" class="sm">GPT-5.4 · prose &amp; judgement only · File Search grounded · stub twin per agent (CI)</text>
  <g>
    <g transform="translate(318,132)"><rect width="172" height="130" rx="10" class="card" stroke="#7C3AED" stroke-opacity=".24"/><path d="M10 0 Q0 0 0 10 L0 120 Q0 130 10 130" fill="none" stroke="#7C3AED" stroke-width="3.4" stroke-linecap="round"/><rect x="13" y="12" width="20" height="20" rx="5" fill="#7C3AED"/><g transform="translate(18,16)" class="gl"><circle cx="3.5" cy="4.5" r="3"/><path d="M5.6 6.6 L11 12 M9.4 12 h1.6 M11 12 v-1.6"/></g><text x="40" y="25" class="cn" font-size="10">needs-auth</text><text x="14" y="52" class="sm">auth required? this plan · code</text><line x1="14" y1="90" x2="158" y2="90" stroke="#7C3AED" stroke-opacity=".14"/><text x="14" y="108" class="sm" font-size="7.6"><tspan fill="#8A6FB0">reads </tspan>payer rule-set</text></g>
    <g transform="translate(506,132)"><rect width="172" height="130" rx="10" class="card" stroke="#7C3AED" stroke-opacity=".24"/><path d="M10 0 Q0 0 0 10 L0 120 Q0 130 10 130" fill="none" stroke="#7C3AED" stroke-width="3.4" stroke-linecap="round"/><rect x="13" y="12" width="20" height="20" rx="5" fill="#7C3AED"/><g transform="translate(18,16)" class="gl"><circle cx="4.5" cy="4.5" r="3.6"/><path d="M7.5 7.5 L11.5 11.5"/></g><text x="40" y="25" class="cn" font-size="10">evidence-gap</text><text x="14" y="52" class="sm">note vs criteria</text><text x="14" y="63" class="sm">— met / missing</text><line x1="14" y1="90" x2="158" y2="90" stroke="#7C3AED" stroke-opacity=".14"/><text x="14" y="108" class="sm" font-size="7.6"><tspan fill="#8A6FB0">reads </tspan>criteria (File Search)</text></g>
    <g transform="translate(694,132)"><rect width="172" height="130" rx="10" class="card" stroke="#7C3AED" stroke-opacity=".5" stroke-width="1.4"/><path d="M10 0 Q0 0 0 10 L0 120 Q0 130 10 130" fill="none" stroke="#7C3AED" stroke-width="3.8" stroke-linecap="round"/><rect x="13" y="12" width="20" height="20" rx="5" fill="#7C3AED"/><g transform="translate(18,15)" class="gl"><path d="M1 0 h7 v14 h-7 z"/><path d="M3 4 h3 M3 7 h3 M3 10 h2"/></g><text x="40" y="19" class="cn" font-size="10">★ appeal-builder</text><text x="14" y="42" class="sm">match to appeals</text><text x="14" y="53" class="sm">that won before</text><line x1="14" y1="90" x2="158" y2="90" stroke="#7C3AED" stroke-opacity=".2"/><text x="14" y="108" class="sm" font-size="7.6"><tspan fill="#8A6FB0">reads </tspan>precedent narratives</text></g>
    <g transform="translate(882,132)"><rect width="172" height="130" rx="10" class="card" stroke="#7C3AED" stroke-opacity=".24"/><path d="M10 0 Q0 0 0 10 L0 120 Q0 130 10 130" fill="none" stroke="#7C3AED" stroke-width="3.4" stroke-linecap="round"/><rect x="13" y="12" width="20" height="20" rx="5" fill="#7C3AED"/><g transform="translate(18,16)" class="gl"><path d="M1 0 h9 M1 12 h9 M2 0 c0 4 6 4 6 0 M2 12 c0 -4 6 -4 6 0"/></g><text x="40" y="25" class="cn" font-size="10">expiry-watch</text><text x="14" y="52" class="sm">auth lapses before</text><text x="14" y="63" class="sm">the procedure date</text><line x1="14" y1="90" x2="158" y2="90" stroke="#7C3AED" stroke-opacity=".14"/><text x="14" y="108" class="sm" font-size="7.6"><tspan fill="#8A6FB0">reads </tspan>auth + calendar</text></g>
    <g transform="translate(1070,132)"><rect width="172" height="130" rx="10" class="card" stroke="#7C3AED" stroke-opacity=".24"/><path d="M10 0 Q0 0 0 10 L0 120 Q0 130 10 130" fill="none" stroke="#7C3AED" stroke-width="3.4" stroke-linecap="round"/><rect x="13" y="12" width="20" height="20" rx="5" fill="#7C3AED"/><g transform="translate(19,15)" class="gl"><path d="M0 1 h5 v10 h-5 z"/><path d="M8 3 v9 h-3.5"/><path d="M1.6 4 h2 M1.6 6.5 h2"/></g><text x="40" y="25" class="cn" font-size="10">policy-drift</text><text x="14" y="52" class="sm">criteria changed</text><text x="14" y="63" class="sm">silently</text><line x1="14" y1="90" x2="158" y2="90" stroke="#7C3AED" stroke-opacity=".14"/><text x="14" y="108" class="sm" font-size="7.6"><tspan fill="#8A6FB0">reads </tspan>policy versions</text></g>
  </g>

  <!-- ===== 2 · COMPUTE (blue) ===== -->
  <rect x="40" y="310" width="1220" height="132" rx="13" fill="#E3EBFD" stroke="#2563EB" stroke-opacity=".4" stroke-width="1.2"/>
  <path d="M53 310 Q40 310 40 323 L40 429 Q40 442 53 442" fill="none" stroke="#2563EB" stroke-width="5" stroke-linecap="round"/>
  <circle cx="61" cy="334" r="13" fill="#2563EB"/><text x="61" y="339" text-anchor="middle" class="num" font-size="13">2</text>
  <g transform="translate(84,327)" class="ico" stroke="#2563EB"><rect x="2.5" y="2.5" width="11" height="11" rx="2"/><rect x="5.5" y="5.5" width="5" height="5"/><path d="M2.5 6H1 M2.5 10H1 M13.5 6H15 M13.5 10H15 M6 2.5V1 M10 2.5V1 M6 13.5V15 M10 13.5V15"/></g>
  <text x="108" y="331" class="sect" fill="#1D4ED8">COMPUTE</text>
  <text x="108" y="344" class="sm">Durable Functions · hub &amp; spokes · no LLM</text>

  <g>
    <g transform="translate(318,326)"><rect width="172" height="44" rx="8" class="card" stroke="#2563EB" stroke-opacity=".34"/><path d="M8 0 Q0 0 0 8 L0 36 Q0 44 8 44" fill="none" stroke="#2563EB" stroke-width="3.2" stroke-linecap="round"/><rect x="118" y="5" width="46" height="12" rx="6" fill="#EDF1FD"/><text x="141" y="13.6" text-anchor="middle" font-size="6" font-weight="700" fill="#2563EB" letter-spacing=".1em">SPOKE</text><rect x="11" y="12" width="20" height="20" rx="5" fill="#2563EB"/><g transform="translate(16,17)" class="gl"><path d="M0 5 l3.5 3.5 L11 1"/></g><text x="38" y="23" font-size="9.5" font-weight="700">Needs Auth Check</text><text x="38" y="34" class="sm" font-size="7.3">Activity Fn</text></g>
    <g transform="translate(506,326)"><rect width="172" height="44" rx="8" class="card" stroke="#2563EB" stroke-opacity=".34"/><path d="M8 0 Q0 0 0 8 L0 36 Q0 44 8 44" fill="none" stroke="#2563EB" stroke-width="3.2" stroke-linecap="round"/><rect x="118" y="5" width="46" height="12" rx="6" fill="#EDF1FD"/><text x="141" y="13.6" text-anchor="middle" font-size="6" font-weight="700" fill="#2563EB" letter-spacing=".1em">SPOKE</text><rect x="11" y="12" width="20" height="20" rx="5" fill="#2563EB"/><g transform="translate(16,17)" class="gl"><circle cx="4.5" cy="4.5" r="3.6"/><path d="M7.5 7.5 L11 11"/></g><text x="38" y="23" font-size="9.5" font-weight="700">Evidence Gap Match</text><text x="38" y="34" class="sm" font-size="7.3">Activity Fn</text></g>
    <g transform="translate(694,326)"><rect width="172" height="44" rx="8" class="card" stroke="#2563EB" stroke-opacity=".34"/><path d="M8 0 Q0 0 0 8 L0 36 Q0 44 8 44" fill="none" stroke="#2563EB" stroke-width="3.2" stroke-linecap="round"/><rect x="118" y="5" width="46" height="12" rx="6" fill="#EDF1FD"/><text x="141" y="13.6" text-anchor="middle" font-size="6" font-weight="700" fill="#2563EB" letter-spacing=".1em">SPOKE</text><rect x="11" y="12" width="20" height="20" rx="5" fill="#2563EB"/><g transform="translate(16,17)" class="gl"><path d="M1 0 h8 v12 h-8 z"/><path d="M3 3.5 h4 M3 6.5 h4 M3 9.5 h2.5"/></g><text x="38" y="23" font-size="9.5" font-weight="700">Appeal Match</text><text x="38" y="34" class="sm" font-size="7.3">Activity Fn</text></g>
    <g transform="translate(882,326)"><rect width="172" height="44" rx="8" class="card" stroke="#2563EB" stroke-opacity=".34"/><path d="M8 0 Q0 0 0 8 L0 36 Q0 44 8 44" fill="none" stroke="#2563EB" stroke-width="3.2" stroke-linecap="round"/><rect x="118" y="5" width="46" height="12" rx="6" fill="#EDF1FD"/><text x="141" y="13.6" text-anchor="middle" font-size="6" font-weight="700" fill="#2563EB" letter-spacing=".1em">SPOKE</text><rect x="11" y="12" width="20" height="20" rx="5" fill="#2563EB"/><g transform="translate(16,17)" class="gl"><circle cx="5.5" cy="5.5" r="4.8"/><path d="M5.5 2.5 v3.2 l2.2 1.3"/></g><text x="38" y="23" font-size="9.5" font-weight="700">Expiry Math</text><text x="38" y="34" class="sm" font-size="7.3">Activity Fn</text></g>
    <g transform="translate(1070,326)"><rect width="172" height="44" rx="8" class="card" stroke="#2563EB" stroke-opacity=".34"/><path d="M8 0 Q0 0 0 8 L0 36 Q0 44 8 44" fill="none" stroke="#2563EB" stroke-width="3.2" stroke-linecap="round"/><rect x="118" y="5" width="46" height="12" rx="6" fill="#EDF1FD"/><text x="141" y="13.6" text-anchor="middle" font-size="6" font-weight="700" fill="#2563EB" letter-spacing=".1em">SPOKE</text><rect x="11" y="12" width="20" height="20" rx="5" fill="#2563EB"/><g transform="translate(16,17)" class="gl"><path d="M2.5 4 h6 M5.5 1 v6 M2.5 10.5 h6"/></g><text x="38" y="23" font-size="9.5" font-weight="700">Policy Diff</text><text x="38" y="34" class="sm" font-size="7.3">Activity Fn</text></g>
  </g>

  <g transform="translate(56,384)">
    <rect width="1188" height="46" rx="10" fill="#2563EB"/>
    <path d="M10 0 Q0 0 0 10 L0 36 Q0 46 10 46" fill="none" stroke="#1D4ED8" stroke-width="3.8" stroke-linecap="round"/>
    <rect x="14" y="11" width="24" height="24" rx="7" fill="#FFFFFF" fill-opacity=".18"/><g transform="translate(20,17)" class="gl"><circle cx="6" cy="6" r="2.4"/><path d="M6 3.6V0 M6 8.4V12 M3.6 6H0 M8.4 6H12"/></g>
    <rect x="48" y="12" width="30" height="13" rx="6.5" fill="#FFFFFF"/><text x="63" y="21.5" text-anchor="middle" fill="#1D4ED8" font-size="7" font-weight="700">HUB</text>
    <text x="86" y="21" class="cn" style="fill:#FFFFFF">Zynara.Orchestrator</text>
    <text x="86" y="35" font-size="8" style="fill:#FFFFFF">Durable Functions · sequences the 5 checks · owns the Gate — auto-submit vs. human review</text>
  </g>
  <g stroke="#2563EB" stroke-width="1.3" fill="none">
    <path d="M404 384 V374" marker-end="url(#ab)"/><path d="M592 384 V374" marker-end="url(#ab)"/><path d="M780 384 V374" marker-end="url(#ab)"/><path d="M968 384 V374" marker-end="url(#ab)"/><path d="M1156 384 V374" marker-end="url(#ab)"/>
  </g>
  <g stroke="#7C3AED" stroke-width="1.3" fill="none" stroke-dasharray="4 3">
    <path d="M404 326 V266" marker-end="url(#av)"/><path d="M592 326 V266" marker-end="url(#av)"/><path d="M780 326 V266" marker-end="url(#av)"/><path d="M968 326 V266" marker-end="url(#av)"/><path d="M1156 326 V266" marker-end="url(#av)"/>
  </g>
  <text x="1156" y="284" class="lbl" fill="#7C3AED" text-anchor="middle">calls agent</text>
  <path d="M166 296 V314" fill="none" stroke="#B45309" stroke-width="1.5" marker-end="url(#ao)"/>
  <text x="172" y="310" class="lbl" fill="#9A5A12">start</text>

  <!-- ===== 4 · DATA (green)  +  5 · EXPERIENCE (teal) ===== -->
  <rect x="40" y="456" width="602" height="186" rx="13" fill="#D5EFE2" stroke="#047857" stroke-opacity=".4" stroke-width="1.2"/>
  <path d="M53 456 Q40 456 40 469 L40 629 Q40 642 53 642" fill="none" stroke="#047857" stroke-width="5" stroke-linecap="round"/>
  <circle cx="61" cy="480" r="13" fill="#047857"/><text x="61" y="485" text-anchor="middle" class="num" font-size="13">4</text>
  <g transform="translate(84,473)" class="ico" stroke="#047857"><path d="M1.5 3.5c0-1.6 3-2.6 6.5-2.6s6.5 1 6.5 2.6v8c0 1.6-3 2.6-6.5 2.6s-6.5-1-6.5-2.6z"/><path d="M1.5 3.5c0 1.6 3 2.6 6.5 2.6s6.5-1 6.5-2.6"/></g>
  <text x="108" y="482" class="sect" fill="#047857">DATA</text>
  <text x="108" y="495" class="sm">system of record + grounding corpus</text>
  <g transform="translate(52,504)"><rect width="578" height="30" rx="8" class="card" stroke="#047857" stroke-opacity=".3"/><path d="M8 0 Q0 0 0 8 L0 22 Q0 30 8 30" fill="none" stroke="#047857" stroke-width="3.2" stroke-linecap="round"/><rect x="11" y="6" width="18" height="18" rx="4.5" fill="#047857"/><g transform="translate(15,10)" class="gl"><path d="M0 0 h7 v11 h-7 z M7 5.5 h6 M10 3 l3 2.5 -3 2.5"/></g><text x="35" y="13" class="cn" font-size="9.5">Submission Adapter <tspan class="sm" font-weight="400">· Azure Function</tspan></text><text x="35" y="25" class="sm">only path to a payer · portal / X12 278 / FHIR / fax</text></g>
  <g transform="translate(52,540)"><rect width="578" height="30" rx="8" class="card" stroke="#047857" stroke-opacity=".3"/><path d="M8 0 Q0 0 0 8 L0 22 Q0 30 8 30" fill="none" stroke="#047857" stroke-width="3.2" stroke-linecap="round"/><rect x="11" y="6" width="18" height="18" rx="4.5" fill="#047857"/><g transform="translate(16,10)" class="gl"><circle cx="4.5" cy="4.5" r="4.5"/><path d="M0 4.5 h9 M4.5 0 c2.2 2.2 2.2 6.8 0 9 M4.5 0 c-2.2 2.2 -2.2 6.8 0 9"/></g><text x="35" y="13" class="cn" font-size="9.5">Azure Cosmos DB <tspan class="sm" font-weight="400">· serverless</tspan></text><text x="35" y="25" class="sm">requests · submissions · outcomes · auths · agentCalls · precedent/policy metadata</text></g>
  <g transform="translate(52,576)"><rect width="578" height="30" rx="8" class="card" stroke="#047857" stroke-opacity=".3"/><path d="M8 0 Q0 0 0 8 L0 22 Q0 30 8 30" fill="none" stroke="#047857" stroke-width="3.2" stroke-linecap="round"/><rect x="11" y="6" width="18" height="18" rx="4.5" fill="#047857"/><g transform="translate(15,10)" class="gl"><path d="M6 0 L12 3 L6 6 L0 3 z M0 7 L6 10 L12 7 M0 11 L6 14 L12 11"/></g><text x="35" y="13" class="cn" font-size="9.5">Blob Storage</text><text x="35" y="25" class="sm">policy documents · denial PDFs · precedent narratives</text></g>
  <g transform="translate(52,612)"><rect width="578" height="30" rx="8" class="card" stroke="#047857" stroke-opacity=".3"/><path d="M8 0 Q0 0 0 8 L0 22 Q0 30 8 30" fill="none" stroke="#047857" stroke-width="3.2" stroke-linecap="round"/><rect x="11" y="6" width="18" height="18" rx="4.5" fill="#047857"/><g transform="translate(16,10)" class="gl"><circle cx="4.5" cy="4.5" r="3.6"/><path d="M7 7 L11 11"/></g><text x="35" y="13" class="cn" font-size="9.5">Foundry File Search</text><text x="35" y="25" class="sm">vector index over the corpus — the agents query it</text></g>

  <rect x="658" y="456" width="602" height="186" rx="13" fill="#DBF1F4" stroke="#0891B2" stroke-opacity=".42" stroke-width="1.2"/>
  <path d="M671 456 Q658 456 658 469 L658 629 Q658 642 671 642" fill="none" stroke="#0891B2" stroke-width="5" stroke-linecap="round"/>
  <circle cx="679" cy="480" r="13" fill="#0891B2"/><text x="679" y="485" text-anchor="middle" class="num" font-size="13">5</text>
  <g transform="translate(702,473)" class="ico" stroke="#0E7490"><rect x="0.5" y="1" width="15" height="10" rx="1.5"/><path d="M5.5 15h5 M8 11v4"/></g>
  <text x="726" y="482" class="sect" fill="#0E7490">EXPERIENCE</text>
  <text x="726" y="495" class="sm">review surface — Reviewer approves every outbound action</text>
  <g transform="translate(670,506)"><rect width="270" height="40" rx="9" class="card" stroke="#0891B2" stroke-opacity=".3"/><path d="M10 0 Q0 0 0 10 L0 30 Q0 40 10 40" fill="none" stroke="#0891B2" stroke-width="3.2" stroke-linecap="round"/><rect x="12" y="10" width="20" height="20" rx="5" fill="#0891B2"/><g transform="translate(17,14)" class="gl"><circle cx="5" cy="4" r="3"/><path d="M0 12c0-3.5 8-3.5 9 0 M9 8l2 2 4-4.5"/></g><text x="38" y="18" class="cn">Reviewer</text><text x="38" y="31" class="sm">Human</text></g>
  <g transform="translate(670,558)"><rect width="270" height="40" rx="9" class="card" stroke="#0891B2" stroke-opacity=".3"/><path d="M10 0 Q0 0 0 10 L0 30 Q0 40 10 40" fill="none" stroke="#0891B2" stroke-width="3.2" stroke-linecap="round"/><rect x="12" y="10" width="20" height="20" rx="5" fill="#0891B2"/><g transform="translate(17,14)" class="gl"><path d="M5 0 C2 0 4 6 1 7.5 C4 9 2 15 5 15 M11 0 C14 0 12 6 15 7.5 C12 9 14 15 11 15"/></g><text x="38" y="18" class="cn">API Proxy</text><text x="38" y="31" class="sm">Azure Function · read models + reviewer actions</text></g>
  <g transform="translate(958,506)"><rect width="288" height="92" rx="9" class="card" stroke="#0891B2" stroke-opacity=".3"/><path d="M10 0 Q0 0 0 10 L0 82 Q0 92 10 92" fill="none" stroke="#0891B2" stroke-width="3.2" stroke-linecap="round"/><rect x="12" y="10" width="20" height="20" rx="5" fill="#0891B2"/><g transform="translate(16,14)" class="gl"><rect x="0" y="0" width="6" height="6"/><rect x="9" y="0" width="6" height="6"/><rect x="0" y="9" width="6" height="6"/><rect x="9" y="9" width="6" height="6"/></g><text x="38" y="18" class="cn">Dashboard</text><text x="38" y="30" class="sm">Static Web App</text><rect x="196" y="8" width="80" height="17" rx="8.5" fill="#0891B2"/><text x="236" y="19.5" text-anchor="middle" fill="#FFFFFF" font-size="7.4" font-weight="700">UK ⇄ US</text><line x1="14" y1="42" x2="274" y2="42" stroke="#0891B2" stroke-opacity=".14"/><g class="sm"><circle cx="20" cy="58" r="1.8" fill="#0891B2"/><text x="30" y="61" font-weight="700">Review Queue</text><text x="112" y="61">drafts · appeals · HITL</text><circle cx="20" cy="78" r="1.8" fill="#0891B2"/><text x="30" y="81" font-weight="700">Early Warnings</text><text x="112" y="81">expiry-watch · policy-drift</text></g></g>

  <!-- connectors -->
  <path d="M300 456 V440" fill="none" stroke="#5C7C84" stroke-width="1.4" stroke-dasharray="3 2" marker-start="url(#am)"/>
  <text x="310" y="451" class="lbl">Zynara.Orchestrator ⇄ Cosmos · Blob (system of record)</text>
  <path d="M632 519 H654" fill="none" stroke="#047857" stroke-width="1.5" marker-end="url(#am)"/>
  <path d="M805 546 V558" fill="none" stroke="#0891B2" stroke-width="1.4" marker-end="url(#at)"/>
  <text x="810" y="556" class="lbl" fill="#0E7490">actions</text>
  <path d="M940 578 H956" fill="none" stroke="#0891B2" stroke-width="1.4" marker-end="url(#at)"/>
  <text x="940" y="573" class="lbl" fill="#0E7490" text-anchor="end">reads</text>

  <!-- ===== CROSS-CUTTING (uniform slate) ===== -->
  <line x1="40" y1="658" x2="1260" y2="658" stroke="#0FA3A0" stroke-opacity=".5" stroke-width="1.2" stroke-dasharray="2 4"/>
  <circle cx="46" cy="674" r="4" fill="#475569"/>
  <text x="58" y="678" class="sect" fill="#334155">CROSS-CUTTING</text>
  <text x="184" y="678" class="sm">applies to every layer</text>

  <g transform="translate(40,688)">
    <rect width="394" height="106" rx="11" fill="#F1F5F9" stroke="#64748B" stroke-opacity=".4"/>
    <path d="M11 0 Q0 0 0 11 L0 95 Q0 106 11 106" fill="none" stroke="#475569" stroke-width="4" stroke-linecap="round"/>
    <circle cx="20" cy="21" r="4" fill="#475569"/><text x="33" y="25" class="sect" font-size="10" fill="#334155">IDENTITY &amp; SECURITY</text>
    <g transform="translate(20,40)" class="ico" stroke="#475569" stroke-width="1.5"><path d="M6 0.6 L11 2.4 V6.5 C11 9 8.5 11 6 12 C3.5 11 1 9 1 6.5 V2.4 Z"/></g>
    <text x="42" y="46" class="cn" font-size="9">Managed identity</text><text x="42" y="58" class="sm">Cosmos RBAC · Foundry · Blob — no stored secrets</text>
    <g transform="translate(20,74)" class="ico" stroke="#475569" stroke-width="1.5"><rect x="1" y="5" width="10" height="7" rx="1.5"/><path d="M3 5 V3.2 a3 3 0 0 1 6 0 V5"/></g>
    <text x="42" y="80" class="cn" font-size="9">Key Vault</text><text x="42" y="92" class="sm">App Insights + content-share strings only</text>
  </g>
  <g transform="translate(453,688)">
    <rect width="394" height="106" rx="11" fill="#F1F5F9" stroke="#64748B" stroke-opacity=".4"/>
    <path d="M11 0 Q0 0 0 11 L0 95 Q0 106 11 106" fill="none" stroke="#475569" stroke-width="4" stroke-linecap="round"/>
    <circle cx="20" cy="21" r="4" fill="#475569"/><text x="33" y="25" class="sect" font-size="10" fill="#334155">OBSERVABILITY</text>
    <g transform="translate(20,40)" class="ico" stroke="#475569" stroke-width="1.5"><path d="M0 12 H2.5 L4.5 3 L7.5 13 L9.5 8 H12"/></g>
    <text x="42" y="46" class="cn" font-size="9">One trace per request</text><text x="42" y="58" class="sm">agent + model spans nested under pipeline.run</text>
    <g transform="translate(20,74)" class="ico" stroke="#475569" stroke-width="1.5"><path d="M1 6 l3.5 3.5 L11 1.5"/></g>
    <text x="42" y="80" class="cn" font-size="9">Eval harness</text><text x="42" y="92" class="sm">labelled clinical-case set · CI-gated on accuracy</text>
  </g>
  <g transform="translate(866,688)">
    <rect width="394" height="106" rx="11" fill="#F1F5F9" stroke="#64748B" stroke-opacity=".4"/>
    <path d="M11 0 Q0 0 0 11 L0 95 Q0 106 11 106" fill="none" stroke="#475569" stroke-width="4" stroke-linecap="round"/>
    <circle cx="20" cy="21" r="4" fill="#475569"/><text x="33" y="25" class="sect" font-size="10" fill="#334155">RESPONSIBLE AI</text>
    <g transform="translate(20,38)" class="ico" stroke="#475569" stroke-width="1.5"><path d="M6 0.6 L11 2.4 V6.5 C11 9 8.5 11 6 12 C3.5 11 1 9 1 6.5 V2.4 Z"/><path d="M3.8 6 l1.6 1.6 3 -3.4"/></g>
    <text x="42" y="44" class="cn" font-size="9">Human approves every outbound action</text>
    <g transform="translate(20,56)" class="ico" stroke="#475569" stroke-width="1.5"><rect x="1" y="5" width="10" height="7" rx="1.5"/><path d="M3 5 V3.2 a3 3 0 0 1 6 0 V5"/></g>
    <text x="42" y="62" class="cn" font-size="9">Bounded agents — deterministic code owns decisions</text>
    <g transform="translate(20,74)" class="ico" stroke="#475569" stroke-width="1.5"><path d="M0.5 6 S3 1.5 6 1.5 S11.5 6 11.5 6 S9 10.5 6 10.5 S0.5 6 0.5 6 M1 1.2 L11 10.8"/></g>
    <text x="42" y="80" class="cn" font-size="9">No PHI in scope</text><text x="42" y="92" class="sm">request ids + procedure codes only</text>
  </g>

  <!-- FOOTER -->
  <line x1="40" y1="802" x2="1260" y2="802" stroke="#0FA3A0" stroke-opacity=".25"/>
  <text x="40" y="812" font-size="9" font-weight="700" letter-spacing=".05em">DEEPAK KUMAR · ARCHITECT TRACK SUBMISSION</text>
  <text x="1260" y="812" text-anchor="end" class="sub" font-size="8.5">Zynara Health (fictional) · Care Approval IQ</text>
</svg>
